# xmcd
#
# Track frame offsets: 
#        150
#        10083
#        20105
#        36581
#        46006
#        62849
#        75041
#        86719
#        96747
#        108172
#        119573
#        131670
#        142816
#        160639
#        173844
#
# Disc length: 2447 seconds
#
# Revision: 0
# Processed by: cddbd v1.5.1PL0 Copyright (c) Steve Scherf et al.
# Submitted via: ExactAudioCopy v0.95a5
#
DISCID=be098d0f
DTITLE=Sheldon Tucker - Reflections From My Childhood
DYEAR=1900
DGENRE=Country
TTITLE0=Travelin' Man
TTITLE1=Poor Little Fool
TTITLE2=Garden Party
TTITLE3=Hello Mary Lou
TTITLE4=It's Just a Matter of Time
TTITLE5=Amarillo By Morning
TTITLE6=Your Cheatin' Heart
TTITLE7=He'll Have To Go
TTITLE8=Crazy
TTITLE9=Roses Are Red
TTITLE10=Tennessee Waltz
TTITLE11=After the Loving
TTITLE12=Make the World Go Away
TTITLE13=Margaritaville
TTITLE14=Blue Eyes Crying in The Rain
EXTD=
EXTT0=
EXTT1=
EXTT2=
EXTT3=
EXTT4=
EXTT5=
EXTT6=
EXTT7=
EXTT8=
EXTT9=
EXTT10=
EXTT11=
EXTT12=
EXTT13=
EXTT14=
PLAYORDER=
